<?xml version="1.0" encoding="iso-8859-1"?>
<!-- Uploaded to: SVG Repo, www.svgrepo.com, Generator: SVG Repo Mixer Tools -->
<svg fill="#000000" height="800px" width="800px" version="1.1" id="Layer_1" xmlns="http://www.w3.org/2000/svg" xmlns:xlink="http://www.w3.org/1999/xlink" 
	 viewBox="0 0 512 512" xml:space="preserve">
<g>
	<g>
		<path d="M488.138,128.587c-3.908-1.069-8.096-2.164-12.417-3.294c-15.086-3.943-38.609-10.094-49.147-16.3
			c12.05-1.298,31.137-5.573,47.068-19.174c3.483-2.973,3.896-8.208,0.923-11.69s-8.209-3.898-11.69-0.923
			c-6.105,5.211-12.922,8.7-19.438,11.038c7.834-10.088,11.863-20.587,13.829-25.721c0.273-0.713,0.611-1.596,0.74-1.879
			c2.017-4.088,0.354-9.045-3.728-11.085c-4.099-2.051-9.079-0.388-11.127,3.708c-0.429,0.857-0.804,1.839-1.373,3.327
			c-3.396,8.869-12.415,32.428-36.626,38.27c-2.836,0.684-5.806,1.1-8.899,1.259c6.759-6.007,12.837-15.199,17.756-27.145
			c1.744-4.235-0.276-9.082-4.511-10.826c-4.236-1.744-9.082,0.278-10.826,4.511c-4.5,10.93-9.664,17.976-14.323,21.726
			c5.625-9.983,7.172-23.77,3.494-38.294c-1.124-4.44-5.631-7.129-10.074-6.004c-4.44,1.125-7.127,5.635-6.004,10.074
			c3.24,12.799,0.903,25.051-5.269,30.315c-4.757-6.363-9.768-17.315-14.029-34.363c-1.112-4.443-5.615-7.138-10.057-6.034
			c-4.444,1.111-7.144,5.614-6.034,10.057c2.791,11.162,6.04,20.606,9.732,28.336c-11.146-7.435-24.754-23.938-38.48-51.713
			c-2.029-4.104-7-5.791-11.109-3.759c-4.105,2.029-5.788,7.002-3.759,11.109c3.532,7.147,7.016,13.539,10.435,19.262
			c-7.761-6.117-15.766-12.871-23.999-20.262c-3.41-3.062-8.651-2.779-11.71,0.631c-3.059,3.408-2.778,8.65,0.631,11.71
			c24.108,21.643,46.383,38.082,66.739,49.307c-6.696,1.753-14.063,0.53-21.974-1.21c-0.734-0.161-1.442-0.317-2.121-0.461
			c-2.69-0.573-5.385-1.19-8.094-1.81c-24.407-5.593-52.075-11.928-86.781,11.933c-24.798,17.051-80.483,12.328-117.329,9.2
			c-11.474-0.974-21.383-1.814-28.347-1.814C46.382,110.601,0,135.383,0,180.813c0,23.689,5.651,43.913,10.638,61.755
			c3.785,13.54,7.053,25.235,7.053,35.547c0,23.545-16.678,57.929-16.845,58.271c-0.865,1.766-1.075,3.78-0.59,5.685
			c12.773,50.384,8.654,111.758,8.611,112.372c-0.075,1.084,0.062,2.174,0.405,3.205l8.846,26.537
			c1.129,3.387,4.298,5.67,7.867,5.67h17.691c3.021,0,5.823-1.614,7.281-4.261c1.458-2.647,1.38-5.847-0.233-8.402
			c-0.164-0.27-16.391-27.786-16.446-101.353c13.025,32.594,18.789,79.627,18.855,80.172c0.096,0.806,0.311,1.593,0.636,2.336
			l11.61,26.537c1.32,3.019,4.303,4.969,7.597,4.969h17.691c3.103,0,5.945-1.732,7.368-4.488s1.189-6.077-0.607-8.606
			c-0.425-0.597-42.22-60.548-36.675-145.805c11.682-18.806,24.17-41.147,31.863-65.438c15.649,10.114,49.748,26.45,109.962,29.725
			l-7.831,78.309l-31.708,86.923c-0.745,2.042-0.659,4.294,0.241,6.274l8.293,18.244c1.347,2.961,4.298,4.862,7.55,4.862h14.927
			c3.235,0,6.174-1.881,7.53-4.818c1.357-2.938,0.879-6.395-1.221-8.857c-0.06-0.071-5.951-7.678-5.62-22.91
			c0.349-16.032,7.735-43.143,40.945-81.252c0.712-0.816,1.256-1.765,1.603-2.79l10.139-29.953
			c3.895,18.654,7.898,33.111,9.094,37.31v78.439c0,0.891,0.144,1.777,0.426,2.623l8.846,26.537c1.128,3.387,4.298,5.67,7.867,5.67
			h17.691c3.444,0,6.615-2.052,7.838-5.273c1.215-3.202,0.421-6.744-2.122-9.03c-0.841-0.879-15.115-16.448-15.115-55.908
			c0-17.048,8.459-42.705,17.416-69.869c6.414-19.455,13.037-39.542,17.209-58.421c6.73-6.3,25.999-26.901,33.981-62.532
			c2.628,1.245,5.598,2.542,8.721,3.71c15.974,5.975,27.783,5.476,35.092-1.486c2.74-2.608,5.564-5.894,8.834-9.698
			c10.553-12.273,24.837-28.887,45.298-31.945l24.003,16.002c2.786,1.858,6.414,1.858,9.199,0l26.537-17.691
			c2.191-1.461,3.559-3.877,3.683-6.507C512.145,176.547,513.355,135.486,488.138,128.587z M222.098,362.368
			c-3.962,4.593-7.585,9.054-10.904,13.395l7.999-79.982c6.765,0.085,13.805,0.017,21.161-0.242c0.337,3.18,0.721,6.361,1.142,9.524
			L222.098,362.368z M477.104,188.538l-21.937-14.625c-1.563-1.043-3.427-1.528-5.313-1.362
			c-28.695,2.473-47.068,23.843-59.226,37.984c-2.982,3.469-5.557,6.463-7.699,8.502c-3.917,3.735-21.602-2.266-34.189-9.92
			c-2.384-1.456-5.343-1.612-7.867-0.416c-2.525,1.195-4.279,3.581-4.665,6.349c-3.161,22.656-11.77,39.218-18.435,49.12
			c-7.274,10.809-13.903,16.303-13.945,16.338c-1.487,1.202-2.512,2.88-2.906,4.75c-3.931,18.747-10.731,39.374-17.308,59.323
			c-3.766,11.424-7.449,22.596-10.51,33.15v-2.316c0-0.788-0.112-1.572-0.334-2.329c-0.174-0.592-17.356-59.811-17.356-103.816
			c0-4.581-3.712-8.293-8.293-8.293s-8.293,3.712-8.293,8.293c0,3.184,0.084,6.433,0.235,9.719
			c-8.685,0.287-16.922,0.308-24.721,0.103c-0.567-0.187-1.16-0.321-1.779-0.383c-1.007-0.103-1.988-0.01-2.914,0.23
			c-83.995-3.262-115.571-32.919-115.884-33.225c-2.122-2.121-5.221-2.932-8.114-2.117c-2.888,0.814-5.112,3.125-5.814,6.043
			c-8.236,34.244-28.87,66.147-43.935,89.443c-6.72,10.39-11.535,17.939-14.519,23.923c-1.161-7.395-2.588-14.817-4.337-22.098
			c4.255-9.252,17.227-39.381,17.227-62.791c0-12.585-3.723-25.907-7.666-40.01c-4.699-16.816-10.025-35.875-10.025-57.29
			c0-34.834,38.063-53.626,53.626-53.626c6.262,0,15.846,0.813,26.945,1.755c39.2,3.324,98.441,8.349,128.127-12.059
			c28.707-19.737,50.553-14.732,73.683-9.434c2.794,0.64,5.574,1.276,8.349,1.866c0.643,0.137,1.314,0.284,2.008,0.438
			c10.295,2.263,28.395,6.234,44.002-6.019c14.489,6.023,27.867,9.057,40.081,9.056c2.378,0,4.706-0.136,6.997-0.365
			c-3.231,2.308-5.349,6.08-5.349,10.345c0,7.011,5.704,12.715,12.715,12.715c6.446,0,11.774-4.826,12.594-11.052
			c11.619,6.236,29.354,11.208,51.165,16.909c4.258,1.113,8.384,2.19,12.233,3.245c8.608,2.354,11.405,20.559,11.634,31.759
			L477.104,188.538z"/>
	</g>
</g>
</svg>